<svg viewBox="0 0 1075 1024" xmlns="http://www.w3.org/2000/svg"><path d="M781.03603 0l118.360502 101.831992 151.110489-39.658188-60.382789 143.94643L1074.608965 337.427215l-155.664784-12.895308-98.915197 120.867923-8.238669-35.615611-13.304682 19.701164c-97.687072 144.355804-97.687072 271.415521-18.524212 379.74634 52.758183 72.25466 146.812053 143.639398 282.110439 214.205387h-237.488581c-161.754235-164.005797-220.960072-308.566289-177.566338-433.834991 32.5453-93.951527 83.051921-172.142122 151.571036-234.622958l-9.108591-38.685922a874.424666 874.424666 0 0 0-115.29019 136.987057c-97.738244 144.355804-115.648393 238.204987-86.275748 367.260407 19.496477 85.968717 71.794113 153.61791 156.739393 202.896407h-230.119834c-74.506222-162.16361-82.796062-305.905352-24.869522-431.225227 82.898406-179.562041 174.393683-235.390535 266.042477-309.794413l-13.714058-5.424216c-81.260907 48.664435-151.110489 105.414022-209.59992 170.197591-116.825346 129.362451-145.89096 207.911249-145.89096 339.269402 0 87.503873 18.677727 166.513218 56.033182 236.976863H239.996002c-14.635151-193.480786 15.4539-348.275648 90.267153-464.384589 107.307381-166.513218 205.813203-208.934686 307.133477-270.085053l13.816401-8.443356c14.123432-8.801559 27.735146-16.426166 40.835141-23.027335l-52.092949-20.212883c-63.657788 30.498426-130.488231 72.510519-200.644846 126.189795-181.762431 138.982759-210.16281 253.4542-243.885063 373.605717-22.515616 80.135126-29.372645 175.570636-20.571086 286.357704H0c20.980461-237.283894 82.233172-411.779921 183.809305-523.488082 152.338614-167.485483 238.051472-206.734296 362.808455-258.724901 57.721853-24.050772 111.810504-39.70936 162.317126-47.078107l63.197241-38.32772L781.03603 0z" fill="currentColor"></path></svg>