<svg viewBox="0 0 1024 1024" xmlns="http://www.w3.org/2000/svg"><path d="M921.6 0H102.4a102.4 102.4 0 0 0-102.4 102.4v819.2a102.4 102.4 0 0 0 102.4 102.4h819.2a102.4 102.4 0 0 0 102.4-102.4V102.4a102.4 102.4 0 0 0-102.4-102.4zM508.279467 321.297067c-52.155733 0-93.047467-36.727467-93.047467-83.592534 0-45.909333 41.915733-83.5584 93.047467-83.5584s92.0576 37.649067 92.0576 83.5584c0 46.865067-40.925867 83.626667-92.0576 83.626667z m79.7696 160.221866c0-70.724267-25.565867-104.721067-79.7696-104.721066-55.227733 0-80.7936 33.9968-80.7936 104.721066v291.157334c0 70.724267 25.6 105.642667 80.7936 105.642666 55.227733 0 79.7696-34.9184 79.7696-105.642666v-291.157334z" fill="currentColor"></path></svg>