<svg viewBox="0 0 1040 1024" xmlns="http://www.w3.org/2000/svg"><path d="M414.461028 111.86733L490.348259 146.892206v87.562189L472.835821 251.966833l-70.049751 23.349917-52.537314-40.862355v-81.72471l17.512438-5.837479 46.699834-35.024876zM402.78607 672.26534l87.562189 40.862355v81.72471l-17.512438 5.837479-58.374793 35.024876-64.212272-35.024876v-87.562189l17.512438-17.512438 35.024876-23.349917z" opacity=".824" fill="currentColor"></path><path d="M204.311774 263.641791l11.674959 23.349917-11.674959-23.349917zM729.684909 286.991708l5.837479 87.562189h-11.674958l5.837479-87.562189zM110.912106 368.716418l11.674959 23.349917-11.674959-23.349917zM309.386401 380.391376l11.674959 23.349918-11.674959-23.349918zM145.936982 392.066335l17.512438 17.512438v128.424544l-23.349918 11.674958 11.674959-11.674958v-128.424544l-5.837479-17.512438zM694.660033 392.066335l-5.837479 17.512438v128.424544l11.674958 11.674958-23.349917-11.674958v-128.424544l17.512438-17.512438zM449.485904 403.741294l11.674958 23.349917-11.674958-23.349917zM332.736318 438.766169l11.674959 23.349917-11.674959-23.349917zM461.160862 520.490879l17.512438 5.837479-29.187396 17.512438 11.674958-23.349917zM122.587065 555.515755l-11.674959 23.349917 11.674959-23.349917zM729.684909 567.190713l5.837479 87.562189h-11.674958l5.837479-87.562189z" fill="currentColor" opacity=".863"></path><path d="M157.61194 251.966833l-11.674958 23.349917-23.349917 11.674958 11.674958-23.349917 23.349917-11.674958zM671.310116 251.966833l52.537314 29.187396-17.512438-5.837479q-44.364842-3.502488-35.024876-23.349917zM215.986733 263.641791l40.862355 29.187396q-11.674959 58.374793 23.349917 70.049752l-17.512438-5.83748-17.512438-5.837479V286.991708h-17.512437l-11.674959-23.349917zM624.610282 263.641791l-11.674959 23.349917-17.512437 5.837479v81.72471l5.837479 17.512438q-37.359867-19.84743-17.512438-99.237148l40.862355-29.187396zM99.237148 286.991708l17.512437 99.237148-23.349917-11.674959 5.83748-87.562189zM321.06136 380.391376l40.862355 29.187397-17.512438-5.837479-23.349917-23.349918zM414.461028 380.391376l-11.674958 23.349918 11.674958-23.349918zM718.00995 380.391376l17.512438 5.83748-29.187396 17.512438 11.674958-23.349918zM239.33665 392.066335l40.862355 29.187396-17.512438-5.837479-23.349917-23.349917zM624.610282 392.066335l17.512438 17.512438v128.424544l-23.349917 11.674958 11.674958-11.674958v-128.424544l-5.837479-17.512438zM461.160862 403.741294l40.862355 29.187396q-11.674959 58.374793 23.349917 70.049751l-17.512437-5.837479H490.348259v-64.212272l-17.512438-5.837479-11.674959-23.349917zM297.711443 427.091211l52.537313 40.862355q-22.182421 63.044776 17.512438 52.537313l11.674959 23.349917-40.862355-29.187396q11.674959-52.537313-17.512438-64.212272l-23.349917-23.349917zM542.885572 508.81592l40.862355 29.187397-17.512438-5.83748-23.349917-23.349917zM461.160862 532.165837l40.862355 17.512438-17.512438-5.837479q-35.024876 5.837479-23.349917-11.674959zM402.78607 543.840796l11.674958 23.349917-11.674958-23.349917zM706.334992 543.840796l29.187396 17.512438-17.512438 5.837479-11.674958-23.349917zM110.912106 555.515755L105.074627 573.028192 99.237148 660.590381 93.399668 573.028192 110.912106 555.515755zM239.33665 555.515755q38.527363 21.014925 17.512438 99.237147L192.636816 695.615257l11.674958-23.349917 40.862355-11.674959q8.172471-80.557214-5.837479-105.074626zM542.885572 567.190713l52.537314 40.862355q-22.182421 63.044776 17.512437 52.537313l11.674959 23.349918-40.862355-29.187397q11.674959-52.537313-17.512438-64.212272l-23.349917-23.349917zM122.587065 660.590381l40.862355 29.187397-17.512438-5.837479-23.349917-23.349918zM694.660033 672.26534l-11.674958 23.349917-17.512438-5.837479 29.187396-17.512438z" fill="currentColor" opacity=".263"></path><path d="M157.61194 263.641791h35.024876l52.537313 40.862355Q233.499171 357.041459 262.686567 368.716418l105.074627 58.374793q16.344942-30.354892 70.049751-23.349917l52.537314 40.862354Q478.6733 497.140962 507.860697 508.81592l105.074626 58.374793 29.187397-11.674958V397.903814l-17.512438-5.837479-29.187396-11.674959q-19.84743-82.892206 29.187396-105.074626l46.699834-11.674959 52.537314 23.349917v87.562189L706.334992 392.066335 677.147595 409.578773v128.424544l17.512438 17.512438 29.187397 17.512437v81.72471l-17.512438 5.837479-58.374793 23.349918-52.537313-40.862355q22.182421-63.044776-17.512438-52.537314l-116.749586-70.049751q-8.172471 32.689884-58.374792 23.349917L350.248756 502.978441q11.674959-52.537313-17.512438-64.212272l-105.074626-58.374793-29.187397 11.674959v157.61194l17.512438 5.83748 29.187396 11.674958v75.887231L227.661692 660.590381q-16.344942 30.354892-70.049752 23.349918L105.074627 643.077944q-14.00995-72.384743 29.187396-87.562189l29.187397-17.512438v-128.424544L145.936982 392.066335 105.074627 362.878939q-14.00995-60.709784 17.512438-75.887231l35.024875-23.349917z" fill="currentColor" opacity=".996"></path></svg>