<svg viewBox="0 0 1024 1024" xmlns="http://www.w3.org/2000/svg"><path d="M839.339 413.867a298.41 298.41 0 0 0 95.701 16.298 302.336 302.336 0 0 0 53.035-5.034 315.477 315.477 0 0 1-212.736 129.536v42.666A165.803 165.803 0 0 0 818.005 768 170.667 170.667 0 0 1 647.34 938.667h-256a170.667 170.667 0 0 1-119.894-292.011 168.448 168.448 0 0 1-8.106-49.323v-45.44A340.864 340.864 0 0 1 35.968 421.59a344.661 344.661 0 0 0 56.704 5.078 337.408 337.408 0 0 0 100.096-15.659 170.453 170.453 0 0 1 70.57-325.675h85.334a85.333 85.333 0 0 0 0 170.667h341.333a85.333 85.333 0 0 0 0-170.667h85.334a170.667 170.667 0 0 1 64 328.534z m-192 396.8A42.667 42.667 0 0 0 690.005 768a41.813 41.813 0 0 0-5.93-20.437A168.79 168.79 0 0 1 604.672 768a42.667 42.667 0 0 0 42.667 42.667zM370.005 469.333a46.208 46.208 0 1 0 64 42.667 56.704 56.704 0 0 0-64-42.667z m-15.402 278.23A41.344 41.344 0 0 0 348.672 768a42.667 42.667 0 0 0 85.333 0 168.661 168.661 0 0 1-79.402-20.437z m314.069-278.23a46.208 46.208 0 1 0 64 42.667 56.704 56.704 0 0 0-64-42.667z" fill="currentColor"></path></svg>