<svg viewBox="0 0 1532 1024" xmlns="http://www.w3.org/2000/svg"><path d="M0.303407 0h28.065186c15.094519 3.792593 29.354667 10.998519 39.215407 23.286519 86.243556 100.200296 194.484148 181.134222 314.481778 236.430222-5.840593-50.669037-12.743111-101.262222-18.280297-152.007111 33.754074-3.489185 70.618074 12.667259 82.223408 46.497185 15.701333 48.165926 26.851556 97.697185 41.111704 146.318222 173.624889 54.46163 363.254519 57.268148 537.941333 5.840593 169.832296-49.379556 324.342519-149.276444 439.789037-283.230815 9.784889-12.212148 23.969185-19.342222 38.987852-23.134815h27.989333c-49.910519 147.683556-149.655704 276.631704-272.914963 371.067259-199.793778 154.055111-472.860444 204.344889-715.207111 135.243852 28.292741 101.869037 56.357926 203.813926 85.257482 305.531259 5.461333 31.706074 27.45837 62.881185 61.819259 65.384297 58.102519 1.972148 116.356741 0.075852 174.459259 0.910222 28.368593 1.744593 59.088593-13.50163 69.025185-41.263408 18.583704-55.978667 28.444444-114.915556 50.744889-169.680592 27.685926-63.563852 96.104296-104.296296 165.281185-98.531556-11.757037 98.910815-23.286519 197.82163-35.877926 296.580741-11.301926 78.051556-71.149037 154.282667-154.510222 158.757926H611.51763c-92.690963-5.082074-152.917333-96.331852-157.847704-182.423704-15.701333-129.554963-31.706074-259.034074-47.786667-388.513185C220.122074 360.978963 68.114963 196.835556 0.303407 0z" fill="currentColor"></path></svg>