<svg viewBox="0 0 1024 1024" xmlns="http://www.w3.org/2000/svg"><path d="M923.52 557.376a239.872 239.872 0 0 0 55.104-125.888c14.848-96.768-34.944-131.136-72.064-119.68-47.744 14.592-50.944 76.992-18.048 124.8 21.184 31.296 42.432 66.624 25.472 105.152-5.312 11.456-7.424 36.416 9.536 15.616z" fill="currentColor"></path><path d="M946.816 561.536c-36.032 58.24-80.576 108.16-190.848 104-121.984-4.16-221.632-90.496-227.968-211.2-9.6-114.432 28.608-279.872-91.2-330.88C289.28 62.08 27.456 166.208 43.328 477.312c12.8 248.64 218.496 440.064 470.848 440.064 208.896 0 400.832-138.368 456-340.224 10.56-35.328-9.6-36.416-23.36-15.552zM358.272 381.44a35.456 35.456 0 1 1 0-70.72c20.16 0 36.096 15.616 36.096 35.328a36.096 36.096 0 0 1-36.096 35.392z" fill="currentColor"></path></svg>