<svg viewBox="0 0 1280 1024" xmlns="http://www.w3.org/2000/svg"><path d="M796.82375 631.836875l-432.75-5.49a8.5875 8.5875 0 0 1-6.81-3.61125 8.715 8.715 0 0 1-0.92625-7.775625 11.518125 11.518125 0 0 1 10.051875-7.6425l436.7625-5.505c51.808125-2.3625 107.89875-44.20125 127.54125-95.22l24.91125-64.76625a14.895 14.895 0 0 0 0.9825-5.505 14.503125 14.503125 0 0 0-0.3075-3.058125A284.83125 284.83125 0 0 0 409.356875 404 127.725 127.725 0 0 0 208.625 537.48125C110.6075 540.32375 32 620.24 32 718.475a180.10125 180.10125 0 0 0 1.929375 26.17125 8.4525 8.4525 0 0 0 8.334375 7.258125l798.9375 0.095625c0.080625 0 0.15-0.035625 0.22875-0.0375a10.51125 10.51125 0 0 0 9.883125-7.5l6.136875-21.121875c7.3125-25.125 4.59-48.375-7.6875-65.4375-11.28-15.735-30.09375-24.99-52.93875-26.06625z m198.65625-185.274375c-4.014375 0-8.008125 0.11625-11.983125 0.3075a7.070625 7.070625 0 0 0-6.2325 4.974375l-17.019375 58.486875c-7.3125 25.125-4.591875 48.34875 7.6875 65.41875 11.2875 15.75 30.10125 24.980625 52.94625 26.0625l92.25 5.510625a8.420625 8.420625 0 0 1 6.58125 3.55125 8.7 8.7 0 0 1 0.96375 7.816875 11.536875 11.536875 0 0 1-10.033125 7.640625l-95.859375 5.510625c-52.03875 2.38125-108.129375 44.20125-127.771875 95.22l-6.928125 18.01125a5.0925 5.0925 0 0 0 4.550625 6.9c0.08625 0 0.165 0.031875 0.255 0.031875h329.83125a8.79375 8.79375 0 0 0 8.510625-6.31875 234.013125 234.013125 0 0 0 8.77875-63.75C1232 551.9375 1126.1075 446.5625 995.48 446.5625z" fill="currentColor"></path></svg>