<svg viewBox="0 0 1024 1024" xmlns="http://www.w3.org/2000/svg"><path d="M686.914969 268.668264c-60.938118-24.074318-175.29113-22.569673-180.557387 50.405604-2.256967 39.120767 32.349865 57.176506 55.671861 75.984567-38.368445-7.523224-84.260114-33.102188-77.489212-86.517081C495.072745 219.767305 631.243108 214.501047 686.914969 268.668264z" fill="currentColor"></path><path d="M1001.385751 115.194485c-31.597543 85.012436-65.452053 168.520228-99.306563 251.275697 51.910249 94.040306 112.096045 203.127061 82.755469 344.563681-12.037159 59.433473-58.681151 128.647138-95.544951 167.767906-44.387024 45.139347-97.049596 82.003147-154.978424 106.829787-179.052742 77.489212-443.870243 22.569673-590.573121-41.377735-38.368445-16.551094-67.70902-40.625412-121.123914-45.139347 38.368445-110.5914 88.774049-224.944412 131.656428-337.792779C73.019852 446.968683 96.341848 270.925231 172.326415 171.618668 246.806338 74.569072 373.196509 11.373987 526.670288 1.593795 717.007867-10.443364 870.481646 47.485464 1001.385751 115.194485zM674.125487 841.185645c10.532514-6.770902-9.027869 0-10.532514 0-66.956698 11.284837-148.959844 12.789482-206.13635-5.266257 94.792628-3.00929 183.566677-6.770902 258.046599-36.111477 87.269404-34.606833 167.767906-109.839077 166.263261-216.668865C879.509515 415.371141 738.825218 398.820047 607.921112 361.203925c-20.312706-6.01858-54.167216-16.551094-55.671861-37.616122C549.239961 294.247227 579.332859 284.467035 601.902532 282.96239c67.70902-3.761612 118.114624 45.139347 166.263261 66.956698 30.092898-73.7276 60.185796-146.702877 88.774049-221.935122C630.490785 21.154179 231.007566 47.485464 215.961117 322.83548 207.68557 467.28139 308.496778 519.191638 421.345145 544.770602c35.359155 8.275547 92.535661 15.046449 95.544951 46.643992 3.761612 37.616122-40.625412 46.643992-75.984567 43.634702-71.470632-6.01858-136.922685-57.176506-180.557387-81.250824-30.84522 77.489212-63.947408 152.721457-94.792628 229.458346C289.688717 848.70887 507.109904 892.343572 674.125487 841.185645z" fill="currentColor"></path></svg>